<svg width="18.716mm" height="17.039mm" version="1.1" viewBox="0 0 18.716 17.039" xmlns="http://www.w3.org/2000/svg"><g transform="translate(-35.039 -13.492)"><path transform="matrix(.26458 0 0 .26458 38.315 19.205)" d="m19.674 13.778c1.3956 1.4386-1.2506 2.5909-2.391 2.3195-3.0903-0.7355-3.5285-4.7147-2.2481-7.1015 2.2904-4.2694 8.0762-4.6858 11.812-2.1766 5.4824 3.6824 5.8783 11.484 2.1051 16.523-5.029 6.716-14.907 7.0857-21.233 2.0337-7.9602-6.3575-8.301-18.339-1.9622-25.944 7.6771-9.2102 21.775-9.5207 30.654-1.8908 10.464 8.9916 10.743 25.213 1.8193 35.365-10.303 11.72-28.654 11.968-40.075 1.7478-12.977-11.613-13.194-32.096-1.6764-44.786 12.92-14.236 35.538-14.42 49.496-1.6049 15.496 14.227 15.648 38.982 1.5335 54.207" fill="none" stroke="#9d9b9b" stroke-opacity=".54434"/></g></svg>
